<?xml version="1.0" standalone="no"?><!DOCTYPE svg PUBLIC "-//W3C//DTD SVG 1.1//EN" "http://www.w3.org/Graphics/SVG/1.1/DTD/svg11.dtd"><svg t="1566625670449" class="icon" viewBox="0 0 1024 1024" version="1.1" xmlns="http://www.w3.org/2000/svg" p-id="2056" xmlns:xlink="http://www.w3.org/1999/xlink" width="200" height="200"><defs><style type="text/css"></style></defs><path d="M67.43 541.67C150.5 723.26 329.18 843.65 512 843.65c65.64 0 130.65-16.02 190.95-44.58L552.98 655.61c-13.11 3.75-26.67 6.39-40.98 6.39-82.71 0-150-67.29-150-150 0-12.03 1.8-23.58 4.47-34.8L193.79 312.02C141.89 359.42 98.3 417.89 67.88 484.4c-0.99 1.98-1.68 3.84-2.13 5.52a15.6253125 15.6253125 0 0 0-0.6 1.5c-1.65 4.74-1.68 7.95-1.53 7.23-0.75 3.51-1.5 10.5-1.5 10.5-0.21 2.1-0.18 3.78 0.06 5.88 0 0 0.66 12.63 0.99 13.89M962 512.09c0-5.43-0.93-9.93-1.2-10.44-0.18-2.73-1.08-7.59-1.95-10.14-0.24-0.63-0.51-1.29-0.78-1.95-0.45-1.47-0.96-2.91-1.5-4.05C873.56 303.95 694.91 182 512 182c-65.58 0-130.53 15.9-190.74 44.34l148.83 142.38C483.47 364.76 497.36 362 512 362c82.71 0 150 67.29 150 150 0 12.36-1.92 24.21-4.77 35.7l173.01 165.48C882.05 665.75 925.46 607.4 955.67 541.25c1.29-2.34 2.1-4.95 2.67-6.87 0.24-0.57 0.45-1.32 0.63-1.86 1.44-4.2 1.74-7.92 1.62-7.92 0 0 0-0.03-0.03-0.03 0.54-2.88 1.44-7.26 1.44-12.48zM842 872a29.91 29.91 0 0 1-20.73-8.31l-690-660c-11.97-11.46-12.39-30.45-0.96-42.42 11.46-11.97 30.45-12.39 42.42-0.96l690 660c11.94 11.46 12.39 30.45 0.93 42.42A29.859375 29.859375 0 0 1 842 872z" p-id="2057" fill="#707070"></path></svg>