<?xml version="1.0" standalone="no"?><!DOCTYPE svg PUBLIC "-//W3C//DTD SVG 1.1//EN" "http://www.w3.org/Graphics/SVG/1.1/DTD/svg11.dtd"><svg t="1566625520007" class="icon" viewBox="0 0 1028 1024" version="1.1" xmlns="http://www.w3.org/2000/svg" p-id="974" xmlns:xlink="http://www.w3.org/1999/xlink" width="200.78125" height="200"><defs><style type="text/css"></style></defs><path d="M899.213 991.838 258.444 991.838c-70.772 0-128.155-57.375-128.155-128.15L130.289 735.543l64.077 0 0 128.145c0 35.39 28.692 64.075 64.077 64.075l640.768 0c35.395 0 64.08-28.685 64.08-64.075L963.291 158.87c0-35.382-28.685-64.072-64.08-64.072L258.444 94.798c-35.385 0-64.077 28.69-64.077 64.072l0 128.152L130.29 287.022 130.29 158.87c0-70.77 57.382-128.15 128.155-128.15l640.768 0c70.78 0 128.155 57.38 128.155 128.15l0 704.818C1027.367 934.463 969.993 991.838 899.213 991.838zM621.853 311.299c-12.48-12.515-12.48-32.82 0-45.302 12.515-12.515 32.82-12.515 45.335 0l221.049 221.037c6.66 6.665 9.51 15.517 9.065 24.247 0.445 8.727-2.405 17.582-9.065 24.277L667.188 756.603c-12.515 12.51-32.82 12.51-45.335 0-12.48-12.52-12.48-32.825 0-45.305l167.985-167.985L34.175 543.313c-17.68 0-32.042-14.325-32.042-32.032 0-17.677 14.362-32.037 32.042-32.037l755.663 0L621.853 311.299z" p-id="975" fill="#707070"></path></svg>