<?xml version="1.0" standalone="no"?><!DOCTYPE svg PUBLIC "-//W3C//DTD SVG 1.1//EN" "http://www.w3.org/Graphics/SVG/1.1/DTD/svg11.dtd"><svg t="1566625659873" class="icon" viewBox="0 0 1024 1024" version="1.1" xmlns="http://www.w3.org/2000/svg" p-id="1832" xmlns:xlink="http://www.w3.org/1999/xlink" width="200" height="200"><defs><style type="text/css"></style></defs><path d="M962 512.09c0-5.4-0.93-9.93-1.2-10.44-0.18-2.7-1.08-7.56-1.95-10.14-0.24-0.63-0.51-1.29-0.78-1.95-0.45-1.47-0.96-2.91-1.5-4.05C873.56 303.98 694.91 182 512 182c-182.88 0-361.53 121.89-444.15 302.43-0.99 1.98-1.68 3.84-2.13 5.49a52.0425 52.0425 0 0 0-0.6 1.5c-1.65 4.77-1.68 8.1-1.53 7.26-0.78 3.51-1.47 10.47-1.47 10.47-0.21 2.13-0.21 3.78 0.03 5.91 0 0 0.69 6.06 1.02 7.32 0.12 1.71 0.54 4.23 1.05 6.54h-0.03c0.42 1.95 1.05 3.84 1.86 5.7 0.45 1.44 0.93 2.79 1.38 3.78C150.53 719.99 329.18 842 512 842c182.94 0 361.59-121.92 443.64-301.59 1.29-2.34 2.1-4.53 2.67-6.48 0.24-0.57 0.45-1.11 0.63-1.62 1.44-4.2 1.74-7.8 1.62-7.8l-0.03 0.03c0.57-2.91 1.47-7.26 1.47-12.45zM512 662c-82.71 0-150-67.29-150-150s67.29-150 150-150 150 67.29 150 150-67.29 150-150 150z" p-id="1833" fill="#707070"></path></svg>